<svg xmlns="http://www.w3.org/2000/svg" width="400" height="300" viewBox="0 0 400 300"><rect width="100%" height="100%" fill="#DDDDDD"/><path fill="#999999" d="M95.255 135.54h3.79v23.14h-2.21q-.51 0-.85-.17-.35-.17-.67-.57l-12.08-15.42q.1 1.06.1 1.95v14.21h-3.79v-23.14h2.25q.28 0 .48.03.2.02.35.09.15.08.29.21.15.14.32.36l12.13 15.49q-.05-.56-.08-1.1-.03-.55-.03-1.01zm11.44 13.04h7.46q0-.76-.22-1.44t-.65-1.2q-.43-.51-1.09-.8-.67-.3-1.55-.3-1.71 0-2.69.98-.99.97-1.26 2.76m10.08 2.39h-10.16q.1 1.26.45 2.18t.93 1.52q.57.6 1.36.9.8.29 1.76.29t1.65-.22q.7-.22 1.22-.5.52-.27.91-.49.39-.23.76-.23.5 0 .74.37l1.13 1.44q-.65.77-1.47 1.29t-1.7.83q-.89.31-1.81.44t-1.79.13q-1.71 0-3.18-.57t-2.56-1.68-1.71-2.75q-.63-1.64-.63-3.8 0-1.68.55-3.16.54-1.48 1.56-2.58 1.01-1.09 2.48-1.73 1.46-.64 3.3-.64 1.55 0 2.87.49 1.31.5 2.25 1.45.95.95 1.48 2.34.54 1.38.54 3.16 0 .89-.19 1.21-.2.31-.74.31m24.32-8.71h3.01l-5.22 16.42h-3.17q-.54 0-.75-.7l-2.94-9.49q-.15-.48-.27-.95-.12-.48-.2-.96-.09.48-.21.97t-.27.97l-2.99 9.46q-.19.7-.85.7h-3.04l-5.2-16.42h3.16q.43 0 .73.21.31.21.4.53l2.35 8.77q.18.72.32 1.41.13.68.23 1.37.17-.69.37-1.37.2-.69.43-1.41l2.72-8.8q.09-.32.37-.53t.68-.21h1.75q.41 0 .71.21t.39.53l2.64 8.8q.21.72.39 1.41.19.7.36 1.39.21-1.36.6-2.8l2.41-8.77q.11-.32.4-.53t.69-.21m16.16 1.78-.9 1.42q-.16.26-.33.36-.18.11-.45.11-.29 0-.62-.16-.32-.16-.76-.36-.43-.2-.98-.36t-1.3-.16q-1.17 0-1.84.49-.66.5-.66 1.3 0 .53.34.89.35.36.92.63.56.27 1.28.49.72.21 1.47.47.74.26 1.46.58.72.33 1.29.84.57.5.91 1.2.35.71.35 1.7 0 1.18-.43 2.18-.42 1-1.25 1.73-.84.73-2.06 1.14t-2.82.41q-.85 0-1.66-.16-.81-.15-1.55-.42-.75-.27-1.38-.64t-1.11-.8l.91-1.5q.18-.28.42-.42t.61-.14q.36 0 .69.2.33.21.76.45t1.02.45q.58.21 1.48.21.7 0 1.21-.17.5-.17.83-.44t.48-.63.15-.75q0-.57-.34-.94-.35-.37-.92-.64-.56-.27-1.29-.49-.73-.21-1.49-.47t-1.49-.6-1.29-.87q-.57-.53-.92-1.3-.34-.77-.34-1.85 0-1.01.4-1.92.4-.92 1.18-1.6.77-.68 1.93-1.08 1.16-.41 2.68-.41 1.7 0 3.09.56t2.32 1.47m19.49-8.5h3.79v23.14h-2.21q-.51 0-.85-.17-.35-.17-.67-.57l-12.08-15.42q.1 1.06.1 1.95v14.21h-3.79v-23.14h2.25q.27 0 .47.03.2.02.36.09.15.08.29.21.15.14.32.36l12.13 15.49q-.05-.56-.08-1.1-.03-.55-.03-1.01zm15.58 6.47q1.83 0 3.32.59 1.5.59 2.56 1.68 1.07 1.09 1.64 2.66.58 1.56.58 3.5 0 1.95-.58 3.52-.57 1.57-1.64 2.67-1.06 1.11-2.56 1.7-1.49.59-3.32.59-1.84 0-3.34-.59-1.51-.59-2.57-1.7-1.06-1.1-1.65-2.67-.58-1.57-.58-3.52 0-1.94.58-3.5.59-1.57 1.65-2.66t2.57-1.68q1.5-.59 3.34-.59m0 13.87q2.05 0 3.03-1.38.99-1.37.99-4.03 0-2.65-.99-4.05-.98-1.39-3.03-1.39-2.08 0-3.08 1.4t-1 4.04 1 4.03q1 1.38 3.08 1.38m31.55-13.62h3.01l-5.21 16.42h-3.17q-.55 0-.75-.7l-2.95-9.49q-.14-.48-.26-.95-.12-.48-.2-.96-.1.48-.22.97t-.26.97l-2.99 9.46q-.2.7-.85.7h-3.04l-5.2-16.42h3.15q.43 0 .74.21.3.21.4.53l2.35 8.77q.17.72.31 1.41.14.68.23 1.37.18-.69.38-1.37.2-.69.42-1.41l2.72-8.8q.1-.32.38-.53t.68-.21h1.74q.42 0 .71.21.3.21.4.53l2.64 8.8.39 1.41q.18.7.36 1.39.21-1.36.59-2.8l2.42-8.77q.11-.32.4-.53.28-.21.68-.21m17.97-6.72v23.14h-4.32v-23.14zm8.5 23.14h-3.95v-16.42h2.41q.77 0 1.01.72l.26 1.22q.43-.48.9-.88t1.01-.69q.53-.29 1.15-.45.62-.17 1.35-.17 1.55 0 2.55.84t1.5 2.23q.38-.82.96-1.4t1.26-.95q.69-.37 1.47-.55.77-.17 1.56-.17 1.36 0 2.41.41 1.06.42 1.78 1.22t1.1 1.95q.37 1.15.37 2.64v10.45h-3.95v-10.45q0-1.57-.69-2.36t-2.01-.79q-.61 0-1.13.21t-.91.6q-.4.39-.62.98t-.22 1.36v10.45h-3.97v-10.45q0-1.65-.67-2.4-.66-.75-1.94-.75-.86 0-1.61.42-.74.43-1.38 1.16zm31.52-4.24v-2.77q-1.71.08-2.88.3-1.17.21-1.87.55-.71.34-1.01.78-.31.45-.31.98 0 1.04.62 1.49t1.61.45q1.21 0 2.1-.44t1.74-1.34m-8.35-8.62-.71-1.27q2.83-2.59 6.82-2.59 1.44 0 2.57.47 1.14.47 1.92 1.31.79.84 1.2 2.01.4 1.17.4 2.56v10.37h-1.79q-.56 0-.86-.17-.31-.17-.48-.68l-.35-1.18q-.63.56-1.22.98-.59.43-1.23.71-.64.29-1.37.44-.73.16-1.61.16-1.04 0-1.92-.28t-1.52-.84-.99-1.4q-.35-.83-.35-1.93 0-.63.21-1.24.2-.62.68-1.18.47-.56 1.22-1.05.75-.5 1.85-.87 1.09-.37 2.55-.6t3.33-.28v-.96q0-1.65-.71-2.44-.7-.79-2.03-.79-.96 0-1.59.22-.63.23-1.11.51t-.87.5q-.4.23-.88.23-.41 0-.7-.22t-.46-.5m21.92 4.25q.73 0 1.28-.2.54-.2.9-.55t.54-.85q.19-.49.19-1.09 0-1.21-.73-1.92-.73-.72-2.18-.72-1.46 0-2.19.72-.73.71-.73 1.92 0 .58.19 1.08.18.49.54.85t.91.56q.56.2 1.28.2m4.46 9.35q0-.48-.29-.79-.29-.3-.78-.47-.5-.17-1.16-.25-.67-.08-1.41-.12t-1.54-.07q-.79-.03-1.54-.13-.66.37-1.06.87-.41.49-.41 1.15 0 .43.21.81.22.37.69.64.47.28 1.23.43.75.15 1.84.15 1.1 0 1.9-.17t1.32-.46q.52-.3.76-.71.24-.4.24-.88m-.78-16.6h4.72v1.48q0 .7-.85.86l-1.47.27q.33.85.33 1.86 0 1.21-.49 2.2-.48.98-1.35 1.67-.86.69-2.04 1.06-1.17.38-2.53.38-.48 0-.93-.05t-.88-.13q-.77.47-.77 1.04 0 .5.46.73.45.23 1.2.33.76.1 1.72.12t1.96.1q1.01.08 1.97.28t1.71.64q.76.43 1.21 1.17.46.75.46 1.91 0 1.09-.54 2.12-.53 1.02-1.55 1.82t-2.5 1.29-3.36.49q-1.86 0-3.24-.36-1.37-.36-2.28-.96-.92-.6-1.36-1.39-.45-.78-.45-1.63 0-1.15.69-1.93.7-.77 1.92-1.24-.66-.33-1.04-.89-.39-.56-.39-1.48 0-.36.14-.76.13-.39.4-.77.26-.39.66-.73t.95-.62q-1.25-.67-1.96-1.79-.72-1.12-.72-2.62 0-1.22.49-2.2.49-.99 1.36-1.68.87-.7 2.07-1.07 1.19-.36 2.6-.36 1.05 0 1.98.21.93.22 1.7.63m10.33 5.76h7.46q0-.76-.22-1.44-.21-.68-.65-1.2-.43-.51-1.09-.8-.67-.3-1.55-.3-1.71 0-2.69.98-.99.97-1.26 2.76m10.08 2.39h-10.16q.1 1.26.45 2.18t.93 1.52q.57.6 1.37.9.79.29 1.75.29t1.65-.22q.7-.22 1.22-.5.52-.27.91-.49.39-.23.76-.23.5 0 .74.37l1.13 1.44q-.65.77-1.47 1.29-.81.52-1.7.83t-1.81.44-1.78.13q-1.72 0-3.19-.57t-2.56-1.68-1.71-2.75-.62-3.8q0-1.68.54-3.16t1.56-2.58q1.02-1.09 2.48-1.73t3.3-.64q1.56 0 2.87.49 1.31.5 2.25 1.45.95.95 1.48 2.34.54 1.38.54 3.16 0 .89-.19 1.21-.19.31-.74.31"/></svg>